<svg xmlns="http://www.w3.org/2000/svg" width="49" height="41" viewBox="0 0 49 41" fill="none"><path d="M0 21.2554C0.518765 21.4657 1.07959 21.6059 1.5563 21.8863C2.49568 22.4331 3.15465 23.2743 3.67342 24.2277C3.7295 24.3259 3.78558 24.41 3.84167 24.5081C3.77156 23.5968 3.71548 22.6995 3.64538 21.8022C3.61734 21.3815 3.42105 21.1432 3.00043 20.9189C2.52372 20.6665 2.06104 20.2318 1.79465 19.7692C0.981448 18.325 0.701034 16.7407 0.771137 15.0863C0.771137 14.946 0.82722 14.8199 0.869282 14.5955C2.48166 15.6751 3.36496 17.1473 3.75754 18.956C3.84167 18.1848 3.95383 17.3997 3.98187 16.6285C3.99589 16.3762 3.88373 16.0256 3.70146 15.8574C2.41156 14.6656 2.31341 13.1374 2.41156 11.553C2.48166 10.8099 2.66393 10.0528 2.80414 9.30973C2.81816 9.22561 2.90228 9.1555 2.97238 9.04334C4.26229 10.4174 4.75301 12.0017 4.66889 13.8244C4.92126 13.0953 5.21569 12.3803 5.39796 11.6372C5.46807 11.3848 5.27178 11.0483 5.17363 10.7679C4.99136 10.2772 4.64085 9.78643 4.6128 9.28169C4.51466 7.66931 4.85116 6.12704 5.59425 4.68291C5.65033 4.57074 5.72044 4.4726 5.80456 4.36043C5.8326 4.33239 5.87467 4.30435 5.95879 4.24827C6.43549 5.00538 6.68787 5.81858 6.72993 6.67384C6.77199 7.51508 6.68786 8.35633 6.65982 9.18355C7.06642 8.55262 7.54313 7.89364 7.93571 7.19261C8.04787 6.99632 8.08993 6.60374 7.96375 6.42147C7.34684 5.48209 7.50106 4.50064 7.78148 3.53321C8.16004 2.24331 8.87509 1.1497 9.99675 0.182269C10.4033 2.04702 10.137 3.71548 9.40788 5.2858C9.95468 4.75301 10.5436 4.2062 11.1184 3.6594C11.1885 3.58929 11.2306 3.46311 11.2306 3.36496C11.2165 2.57981 11.6231 2.00496 12.17 1.51423C13.0813 0.715055 14.231 0.476703 15.4368 0C15.2124 0.981448 14.8759 1.73856 14.3151 2.39754C13.6281 3.18269 12.7869 3.61734 11.7634 3.84167C11.2306 3.96785 10.7959 4.4726 10.3473 4.8792C11.6372 4.4726 12.8289 4.83713 14.1469 5.06147C13.4178 6.099 12.5625 6.72993 11.4409 6.85611C10.9081 6.9122 10.3332 6.84209 9.81448 6.70189C9.02932 6.47755 8.95922 6.46353 8.48251 7.13653C8.25818 7.44498 8.04787 7.76746 7.83756 8.08993C7.7955 8.14602 7.76746 8.21612 7.65529 8.41241C8.9452 7.59921 10.2912 7.72539 11.6231 7.59921C11.6231 7.71137 11.6512 7.78148 11.6231 7.83756C10.88 9.12746 9.85654 10.0388 8.32829 10.2351C7.97777 10.2912 7.61323 10.2071 7.24869 10.179C6.84209 10.151 6.56168 10.2772 6.40745 10.6978C6.1691 11.3287 5.87467 11.9456 5.65033 12.6046C6.71591 11.6091 8.10395 11.3287 9.35179 10.7258C9.37984 10.7539 9.4219 10.7959 9.46396 10.824C9.30973 11.2165 9.15551 11.5951 8.97324 11.9737C8.55262 12.857 8.06189 13.7122 7.20663 14.231C6.77199 14.4974 6.26724 14.6797 5.7625 14.7918C4.99136 14.9601 4.86518 15.0161 4.71095 15.7873C4.57074 16.5023 4.45858 17.2174 4.37445 17.9605C5.13157 16.5304 6.49158 15.7733 7.62725 14.7778C7.68333 14.7918 7.7254 14.8058 7.78148 14.8339C7.7254 15.3106 7.69735 15.7873 7.61323 16.25C7.33282 17.624 6.72993 18.8298 5.60827 19.7131C5.36992 19.8953 5.08951 20.0215 4.82311 20.1617C4.34641 20.4001 4.12208 20.7646 4.15012 21.3114C4.2062 22.0686 4.23425 22.8257 4.31837 23.6108C4.79507 21.9283 6.01487 20.7366 6.95426 19.3626C7.01034 19.3626 7.06642 19.3766 7.12251 19.3766C7.16457 19.7832 7.24869 20.1898 7.26271 20.5964C7.29075 21.8442 7.03838 23.036 6.39343 24.1015C6.11302 24.5642 5.72044 24.9849 5.34188 25.3774C4.90724 25.8261 4.68291 26.2607 4.93528 26.8917C5.22971 27.6348 5.44002 28.4199 5.72044 29.163C5.6924 27.3684 6.51962 25.8401 7.10849 24.2418C7.16457 24.2277 7.22065 24.2277 7.27673 24.2137C7.44498 24.6484 7.65529 25.083 7.76746 25.5457C8.2021 27.3263 8.08993 29.0368 7.09446 30.6352C6.80003 31.1119 6.74395 31.5606 7.12251 32.0373C7.47302 32.4999 7.76746 33.0047 8.14602 33.4674C7.80952 31.7849 8.25818 30.1585 8.37035 28.3919C8.58066 28.5601 8.70684 28.6302 8.79097 28.7424C10.151 30.509 10.5996 32.4439 9.91262 34.603C9.75839 35.0797 9.81448 35.4863 10.2912 35.8369C10.9221 36.2855 11.497 36.7762 12.1419 37.2249C11.1745 35.7668 11.1885 34.0703 10.838 32.3597C11.8194 32.7383 12.4504 33.3131 12.9691 34.0282C13.6281 34.9395 13.9506 35.963 13.9366 37.0987C13.9225 38.1923 13.9366 38.1923 14.9601 38.5709C15.2265 38.669 15.5069 38.7391 15.7733 38.8233C16.0256 38.8934 16.278 38.9775 16.5444 39.0616C16.4463 39.5103 16.25 39.6645 15.8293 39.5103C15.3807 39.342 14.918 39.2299 14.4693 39.0897C14.0768 38.9635 13.7683 39.0196 13.53 39.3981C13.1654 39.973 12.6046 40.2674 11.9737 40.4216C10.6137 40.7301 9.29571 40.5618 8.03385 39.9589C7.80952 39.8608 7.62725 39.6645 7.37488 39.4822C8.73489 38.2905 10.193 37.6455 12.0297 37.954C11.3147 37.4072 10.6838 36.9024 10.0108 36.4257C9.87056 36.3276 9.52004 36.3276 9.40788 36.4257C8.62272 37.1127 7.71137 37.1127 6.80003 36.8884C5.56621 36.58 4.45858 36.0191 3.64538 34.9816C3.60331 34.9255 3.57527 34.8835 3.53321 34.8274C3.51919 34.7993 3.51919 34.7713 3.49115 34.6591C5.08951 33.888 6.67384 33.874 8.32829 34.7152C7.76746 33.916 7.26271 33.1589 6.71591 32.4439C6.53364 32.2055 6.26724 32.1074 5.91673 32.2335C5.21569 32.4999 4.52868 32.3457 3.89775 31.9812C2.67795 31.2801 1.80867 30.2426 1.24784 28.9527C1.17774 28.7845 1.1497 28.5882 1.07959 28.3358C2.83218 28.3779 4.36043 28.7845 5.51013 30.1585C5.11755 29.0929 4.72497 28.0273 4.31837 26.9758C4.2062 26.6954 3.99589 26.5411 3.64538 26.5692C2.95836 26.5972 2.45362 26.2187 2.00496 25.742C1.03753 24.6904 0.434641 23.4426 0.0841241 22.0686C0.0701034 21.9984 0.0280414 21.9283 0 21.8582C0 21.6339 0 21.4516 0 21.2554Z" fill="#3C43ED"></path><path d="M17.4417 29.9764C17.638 28.8127 17.8343 27.6209 18.0446 26.4432C18.2129 25.4758 18.3951 24.5083 18.5353 23.5409C18.5634 23.3586 18.4512 23.1063 18.325 22.9801C16.8528 21.5219 15.3807 20.0918 13.8945 18.6477C13.6421 18.4093 13.3617 18.1289 13.572 17.7924C13.7122 17.5681 14.0627 17.3999 14.3431 17.3578C16.3621 17.0353 18.3951 16.7549 20.4141 16.4745C20.7085 16.4324 20.8768 16.3062 21.017 16.0258C21.9143 14.1891 22.8257 12.3524 23.723 10.5157C23.8772 10.2072 24.0174 9.89879 24.424 9.91281C24.8166 9.92683 24.9428 10.2213 25.083 10.5157C25.9803 12.3524 26.9057 14.1751 27.789 16.0258C27.9292 16.3062 28.0834 16.4324 28.3778 16.4745C30.4249 16.7549 32.4579 17.0493 34.5049 17.3718C34.7713 17.4139 35.0938 17.5821 35.2199 17.7924C35.4162 18.1009 35.1639 18.3813 34.9255 18.6056C33.4674 20.0217 32.0232 21.4518 30.5511 22.8539C30.2847 23.1063 30.1865 23.3306 30.2706 23.7232C30.6492 25.7281 30.9857 27.7471 31.3082 29.7801C31.3502 30.0325 31.2521 30.411 31.0838 30.5653C30.9296 30.6915 30.523 30.6494 30.3127 30.5372C28.462 29.5978 26.6253 28.6304 24.7886 27.649C24.5081 27.4947 24.2838 27.4947 24.0034 27.649C22.1527 28.6304 20.3019 29.6119 18.4512 30.5793C17.8904 30.8597 17.4277 30.5933 17.4417 29.9764Z" fill="#3C43ED"></path><path d="M40.4497 28.5038C40.5338 30.1442 41.0105 31.7566 40.6039 33.411C40.646 33.4391 40.688 33.4531 40.7301 33.4811C41.1367 32.8222 41.5994 32.1912 41.9218 31.4902C42.02 31.2659 41.8377 30.8452 41.6835 30.5648C40.5198 28.5879 40.5759 26.5549 41.3891 24.4799C41.4171 24.4097 41.4592 24.3396 41.5152 24.2695C41.5293 24.2415 41.5713 24.2415 41.6695 24.1854C42.3004 25.7838 43.0996 27.3261 43.0996 29.1487C43.2538 28.7281 43.4221 28.3075 43.5763 27.8729C43.6885 27.5364 43.7305 27.1858 43.8707 26.8634C44.1371 26.2605 43.9548 25.7838 43.4922 25.3912C42.3986 24.4518 41.8517 23.218 41.6274 21.844C41.4872 21.0167 41.4872 20.1895 41.7396 19.2081C42.8052 20.6662 43.9969 21.886 44.5577 23.5685C44.5998 22.7132 44.6839 21.844 44.6419 20.9887C44.6278 20.7083 44.3474 20.3297 44.081 20.1895C41.9359 19.1099 41.2629 17.2171 41.0666 15.0299C41.0526 14.9458 41.1086 14.8617 41.1647 14.6934C42.3284 15.731 43.7025 16.4741 44.3895 17.9322C44.4315 17.9182 44.4736 17.9042 44.5157 17.8901C44.3895 17.1611 44.2633 16.432 44.1231 15.7029C43.9829 15.0019 43.8707 14.8757 43.1697 14.7916C42.1322 14.6794 41.361 14.1466 40.7301 13.3615C40.1132 12.6043 39.7206 11.721 39.4402 10.7536C40.7441 11.2443 42.1041 11.5949 43.2398 12.5623C42.9313 11.8472 42.6509 11.1182 42.3004 10.4171C42.1181 10.0386 41.7115 10.1367 41.4031 10.1928C40.1693 10.4031 39.1458 9.96846 38.2765 9.15526C37.8418 8.74866 37.5053 8.22989 37.0707 7.69711C38.1503 7.5569 40.0711 7.66906 41.1507 8.25793C40.7722 7.72515 40.4357 7.1503 40.001 6.6736C39.8748 6.53339 39.4402 6.54741 39.2159 6.64556C37.6596 7.31855 35.8789 6.63154 34.8694 5.29957C34.8414 5.25751 34.8274 5.21545 34.8134 5.17339C35.262 4.73874 37.3651 4.59854 38.4307 4.92101C38.0802 4.3041 37.4913 3.86946 36.8604 3.7573C35.4303 3.51895 34.533 2.6076 33.902 1.3878C33.6496 1.00924 33.5375 0.574603 33.3833 0.182024C33.4674 0.125942 33.4954 0.0979004 33.5094 0.0979004C34.6872 0.462438 35.893 0.770893 36.8043 1.68224C37.253 2.1309 37.5754 2.64966 37.5754 3.32266C37.5754 3.44884 37.6455 3.60307 37.7297 3.68719C38.2765 4.234 38.8513 4.76679 39.3981 5.28555C38.6691 3.70121 38.4027 2.03275 38.7812 0.308211C38.8233 0.280169 38.8794 0.252128 38.9214 0.224086C39.2579 0.602645 39.6225 0.967182 39.9309 1.37378C40.702 2.38327 41.1928 3.51895 41.2208 4.78081C41.2348 5.25751 40.9965 5.74823 40.9124 6.23896C40.8563 6.53339 40.7301 6.91195 40.8563 7.13628C41.2348 7.85133 41.7256 8.52433 42.2023 9.19732C41.8658 7.47278 41.9359 5.81834 42.8332 4.234C42.9454 4.31812 43.0295 4.37421 43.0715 4.44431C43.9548 6.01463 44.3194 7.69711 44.1652 9.47773C44.1231 9.92639 43.8567 10.3751 43.6043 10.7536C43.38 11.0761 43.2959 11.3986 43.408 11.7351C43.6183 12.4221 43.8988 13.1091 44.1091 13.6839C44.2212 12.9408 44.3054 12.0856 44.5017 11.2584C44.6979 10.4031 45.2447 9.7301 45.8757 8.94495C46.0019 9.35155 46.114 9.63196 46.1841 9.91237C46.4645 11.1182 46.5066 12.338 46.3384 13.5577C46.2262 14.385 45.8897 15.114 45.2588 15.6749C44.8662 16.0394 44.7821 16.46 44.8522 16.9648C44.9503 17.6237 44.9924 18.2827 45.0905 18.9697C45.4551 17.1611 46.3243 15.6889 47.9367 14.5953C47.9788 14.8336 48.0489 15.0019 48.0489 15.1841C48.105 16.7685 47.7965 18.2827 47.0815 19.6988C46.773 20.3017 46.3384 20.8064 45.6513 21.0167C45.2448 21.1289 45.2027 21.4935 45.1746 21.8159C45.0905 22.6992 45.0344 23.5825 44.9784 24.4518C45.2728 24.0172 45.5532 23.5124 45.9177 23.0918C46.2963 22.6712 46.7169 22.2646 47.1796 21.9561C47.6423 21.6337 48.1891 21.4233 48.6938 21.157C48.7359 21.199 48.778 21.2411 48.82 21.2831C48.792 21.5495 48.778 21.8159 48.7219 22.0683C48.3573 23.5124 47.7124 24.8023 46.6608 25.8679C46.2542 26.2745 45.7775 26.5689 45.1887 26.5409C44.768 26.5129 44.5577 26.7512 44.4456 27.0597C44.053 28.0832 43.7025 29.1067 43.2819 30.2564C44.4596 28.7562 45.9878 28.3496 47.7404 28.3075C47.6703 28.5739 47.6563 28.7702 47.5722 28.9524C47.0114 30.2003 46.1701 31.2238 44.9924 31.9248C44.3194 32.3314 43.5763 32.4296 42.7911 32.2052C42.5948 32.1492 42.2163 32.3034 42.0761 32.4857C41.5293 33.1727 41.0526 33.9158 40.5058 34.7009C42.1322 33.8457 43.7165 33.8877 45.399 34.6589C45.2307 34.8972 45.1045 35.1215 44.9363 35.2898C43.8567 36.2993 42.6089 36.9302 41.1086 37.0003C40.5198 37.0284 40.001 36.8461 39.5103 36.4956C39.342 36.3694 38.9635 36.3273 38.7952 36.4395C38.1222 36.8882 37.5053 37.3929 36.8043 37.9397C38.641 37.6312 40.0851 38.2762 41.4031 39.3979C41.0946 39.9306 40.5618 40.0849 40.0571 40.2251C38.7111 40.6317 37.3651 40.7579 36.0752 40.0708C35.7808 39.9166 35.5144 39.6502 35.3181 39.3838C35.0517 39.0193 34.7713 38.9492 34.3787 39.0754C33.916 39.2156 33.4393 39.3418 32.9767 39.51C32.556 39.6642 32.4018 39.468 32.2896 39.0754C32.9346 38.8651 33.5655 38.6688 34.1824 38.4585C34.8975 38.2061 34.9255 38.1921 34.8975 37.4069C34.8554 36.1731 35.1358 35.0514 35.8649 34.042C36.3837 33.3269 37.0146 32.7521 37.9961 32.3595C37.6455 34.084 37.6596 35.7665 36.7342 37.2807C37.4493 36.7059 38.1783 36.1731 38.8373 35.5422C39.0055 35.3879 38.9915 34.9253 38.9074 34.6589C38.2625 32.5277 38.641 30.5929 39.973 28.8122C40.0711 28.672 40.1272 28.5038 40.2113 28.3496C40.2674 28.3916 40.3656 28.4477 40.4497 28.5038Z" fill="#3C43ED"></path></svg>