<svg xmlns="http://www.w3.org/2000/svg" width="44" height="44" viewBox="0 0 44 44" fill="none"><path d="M0 9.99326C0.250429 9.92171 0.512783 9.86208 0.763212 9.7786C1.77685 9.4447 2.80242 9.11079 3.80414 8.74111C4.04264 8.64571 4.29307 8.46683 4.46002 8.2641C5.25901 7.22661 6.03415 6.16527 6.84506 5.08008C6.94046 5.21126 7.03586 5.31858 7.11934 5.42591C7.83485 6.40377 8.55036 7.38164 9.28972 8.34758C9.4209 8.50261 9.6117 8.65764 9.81443 8.72919C10.8996 9.11079 11.9967 9.46855 13.0939 9.83823C13.2727 9.89785 13.4516 9.96941 13.6901 10.0529C13.1535 10.8161 12.6884 11.5793 12.116 12.2471C11.317 13.1773 10.9712 14.1909 11.0904 15.4192C11.1739 16.2778 11.1024 17.1603 11.1024 18.1024C10.4345 17.8877 9.82636 17.7089 9.2301 17.5181C8.56229 17.3034 7.89448 17.0768 7.21474 16.886C6.98816 16.8264 6.71388 16.8264 6.4873 16.886C5.24708 17.2557 4.00686 17.6492 2.77857 18.0308C2.75472 18.0428 2.71894 18.0308 2.62354 18.0189C2.62354 17.8758 2.62354 17.7327 2.62354 17.5896C2.61162 16.3732 2.58777 15.1569 2.56392 13.9524C2.56392 13.8093 2.54007 13.6304 2.46851 13.5112C1.64568 12.3664 0.822838 11.2335 0 10.0887C0 10.0529 0 10.029 0 9.99326Z" fill="#3C43ED"></path><path d="M20.2967 35.5845C21.1672 35.5845 21.9662 35.5845 22.8248 35.5845C22.8248 34.857 22.8487 34.1415 22.8129 33.426C22.7891 32.9967 22.8964 32.8417 23.3615 32.7582C27.7738 31.9831 32.1861 31.1602 36.5984 30.3613C36.6342 30.3493 36.6819 30.3613 36.7534 30.3613C36.7534 34.6305 36.7534 38.8997 36.7534 43.1928C26.6409 43.1928 16.5283 43.1928 6.38 43.1928C6.38 38.9235 6.38 34.6543 6.38 30.3374C7.22669 30.4924 8.07337 30.6355 8.90814 30.7906C12.5692 31.4584 16.2302 32.1262 19.8912 32.794C20.2013 32.8536 20.3205 32.949 20.3086 33.271C20.2848 34.0223 20.2967 34.7736 20.2967 35.5845Z" fill="#3C43ED"></path><path d="M15.2285 20.4042C15.2285 19.3667 15.2404 18.4127 15.2165 17.4468C15.2046 17.1487 15.3119 16.9936 15.5743 16.8744C17.6254 15.8846 19.7481 15.2168 22.0497 15.336C24.0531 15.4314 25.9254 16.0635 27.6903 16.9698C27.7976 17.0294 27.8811 17.2321 27.8811 17.3752C27.893 18.21 27.893 19.0448 27.893 19.8795C27.893 20.0346 27.893 20.1777 27.893 20.3804C30.8743 20.3804 33.796 20.3804 36.7534 20.3804C36.7654 20.5712 36.7773 20.7024 36.7773 20.8455C36.7773 23.0039 36.7773 25.1624 36.7892 27.3208C36.7892 27.619 36.7415 27.7502 36.4076 27.8217C32.1026 28.5849 27.8095 29.3839 23.5045 30.159C23.2183 30.2067 22.9202 30.2425 22.634 30.326C21.4176 30.6957 20.2609 30.2544 19.0922 30.0517C14.9542 29.3243 10.8281 28.5491 6.69003 27.7979C6.4873 27.7621 6.35612 27.7382 6.35612 27.4759C6.36805 25.1505 6.36805 22.8131 6.36805 20.4877C6.36805 20.4758 6.37998 20.4639 6.41575 20.4042C9.30165 20.4042 12.2352 20.4042 15.2285 20.4042ZM25.353 20.3685C25.353 19.8437 25.3649 19.3429 25.341 18.8301C25.341 18.7466 25.2099 18.6274 25.1025 18.5916C22.7294 17.6257 20.3563 17.6257 17.9832 18.6035C17.8997 18.6393 17.7685 18.7347 17.7685 18.8063C17.7447 19.319 17.7566 19.8318 17.7566 20.3565C20.3205 20.3685 22.8129 20.3685 25.353 20.3685Z" fill="#3C43ED"></path><path d="M21.5608 0C22.3955 1.13289 23.1945 2.20616 24.0054 3.2675C24.1366 3.43445 24.3274 3.57756 24.5301 3.64911C25.6749 4.05456 26.8198 4.43617 27.9765 4.81778C28.1077 4.86548 28.2269 4.91318 28.4058 4.9728C27.738 5.91489 27.1298 6.84506 26.4382 7.7156C25.985 8.28801 25.7942 8.88427 25.83 9.6117C25.8777 10.5657 25.8181 11.5317 25.8061 12.4857C25.8061 12.6407 25.7942 12.7838 25.7823 12.9865C24.7686 12.6765 23.7788 12.426 22.8368 12.0564C21.9781 11.7225 21.1792 11.7105 20.3205 12.0564C19.3784 12.426 18.3887 12.6765 17.3631 12.9865C17.3512 12.7957 17.3392 12.6526 17.3273 12.4976C17.3154 11.2932 17.3035 10.1006 17.2796 8.89619C17.2796 8.68154 17.1961 8.45496 17.0769 8.27608C16.3137 7.17896 15.5385 6.08185 14.7395 4.96088C14.8827 4.90125 14.99 4.85355 15.0973 4.80585C16.2302 4.42425 17.375 4.05456 18.496 3.64911C18.7583 3.55371 19.0088 3.3629 19.1757 3.14825C19.9866 2.14653 20.7498 1.08519 21.5608 0Z" fill="#3C43ED"></path><path d="M29.6937 10.0529C31.0293 9.59976 32.3053 9.18238 33.5575 8.72922C33.7483 8.65767 33.951 8.51457 34.0822 8.34762C34.8216 7.38168 35.5371 6.40381 36.2645 5.43787C36.348 5.33054 36.4315 5.22322 36.5388 5.09204C37.3616 6.20108 38.1487 7.27435 38.9596 8.33569C39.0908 8.51457 39.3054 8.65767 39.5201 8.74115C40.7842 9.18238 42.0482 9.61169 43.36 10.0529C43.2646 10.2079 43.1811 10.3272 43.0976 10.4584C42.4179 11.4243 41.7143 12.3783 41.0465 13.3562C40.9153 13.547 40.8319 13.8213 40.8199 14.0479C40.7961 15.3716 40.808 16.6952 40.808 18.1024C40.5576 18.0309 40.4025 17.9951 40.2475 17.9474C39.1146 17.5896 37.9937 17.2319 36.8608 16.8861C36.658 16.8264 36.4195 16.8264 36.2168 16.8861C35.0839 17.22 33.9629 17.5896 32.8301 17.9355C32.675 17.9832 32.5081 18.0189 32.2815 18.0905C32.2815 17.4346 32.2815 16.8264 32.2815 16.2302C32.2696 15.3835 32.4484 14.4772 32.198 13.702C31.9476 12.9269 31.2798 12.2949 30.7908 11.6032C30.445 11.1023 30.0753 10.6015 29.6937 10.0529Z" fill="#3C43ED"></path></svg>