<svg xmlns="http://www.w3.org/2000/svg" width="53" height="35" viewBox="0 0 53 35" fill="none"><path d="M0 11.5945C0.103899 11.2049 0.207798 10.8152 0.324684 10.4256C0.480533 9.9321 0.818205 9.65936 1.3377 9.65936C2.89618 9.64637 4.46766 9.64637 6.02614 9.65936C6.54564 9.65936 6.88331 9.94508 7.02617 10.4386C7.09111 10.6594 7.16903 10.8932 7.25994 11.2178C7.74048 9.88015 8.19503 8.64635 8.6366 7.41254C9.23402 5.8151 9.80547 4.21765 10.3899 2.63319C11.0263 0.918857 12.2731 0.00974053 14.1043 0.00974053C22.1045 -0.00324684 30.1047 -0.00324684 38.105 0.00974053C39.9362 0.00974053 41.183 0.918857 41.8064 2.64618C42.8324 5.46444 43.8584 8.2827 44.9103 11.2178C45.0142 10.8932 45.0792 10.6594 45.1571 10.4256C45.313 9.9321 45.6636 9.65936 46.1701 9.65936C47.7286 9.64637 49.3001 9.64637 50.8586 9.65936C51.3781 9.65936 51.7027 9.95807 51.8716 10.4386C52.2222 11.4776 52.2742 12.5166 51.9105 13.5815C51.6638 14.2959 51.3781 14.5426 50.6248 14.5426C49.3001 14.5426 47.9754 14.5426 46.6506 14.5426C46.4948 14.5426 46.339 14.5556 46.0662 14.5816C46.2221 14.7114 46.261 14.7764 46.326 14.8024C47.4429 15.3089 47.8585 16.205 47.8585 17.3869C47.8455 20.9194 47.8585 24.452 47.8585 27.9845C47.8585 29.595 47.8585 31.2054 47.8585 32.8288C47.8585 33.9717 47.4429 34.4003 46.3 34.4003C44.5857 34.4003 42.8713 34.4003 41.157 34.4003C40.0141 34.4003 39.5985 33.9717 39.5855 32.8288C39.5855 31.2444 39.5855 29.6729 39.5855 28.0884C39.5855 27.9066 39.5855 27.7248 39.5855 27.517C30.5723 27.517 21.611 27.517 12.5978 27.517C12.5978 28.1664 12.5978 28.7898 12.5978 29.4132C12.5978 30.582 12.6107 31.7509 12.5978 32.9327C12.5848 33.9458 12.1432 34.3873 11.1302 34.4003C9.35091 34.4133 7.55865 34.4133 5.77938 34.4003C4.76637 34.4003 4.3248 33.9458 4.3248 32.9327C4.3248 27.7248 4.3248 22.5039 4.3248 17.2959C4.3248 16.153 4.77935 15.2959 5.84432 14.8153C5.89627 14.7894 5.93523 14.7634 5.97419 14.7374C5.98718 14.7244 5.98718 14.6725 6.01315 14.5816C5.84432 14.5686 5.68847 14.5426 5.53262 14.5426C4.27285 14.5426 3.01307 14.5426 1.76628 14.5426C0.727293 14.5426 0.49352 14.3608 0.220785 13.3867C0.142861 13.127 0.0779242 12.8672 0.0129874 12.6075C0 12.2698 0 11.9322 0 11.5945ZM10.6886 14.5946C20.9746 14.5946 31.2216 14.5946 41.5076 14.5946C41.4817 14.4777 41.4687 14.3868 41.4427 14.3218C40.2868 11.1139 39.118 7.91905 37.9751 4.71117C37.8452 4.36051 37.6504 4.34752 37.3647 4.36051C29.858 4.36051 22.3513 4.36051 14.8446 4.36051C14.4679 4.36051 14.3251 4.49039 14.1952 4.82806C13.0913 7.91905 11.9614 11.01 10.8445 14.114C10.7795 14.2309 10.7406 14.3998 10.6886 14.5946ZM12.5718 18.0102C11.7795 18.0102 10.9743 17.9973 10.1821 18.0102C9.02623 18.0232 8.19503 18.8025 8.15607 19.8674C8.11711 20.9584 8.92233 21.8285 10.0912 21.8545C11.7146 21.8935 13.351 21.8935 14.9744 21.8545C16.1433 21.8285 16.9485 20.9844 16.9225 19.8804C16.8966 18.8155 16.0654 18.0362 14.9095 18.0232C14.1303 18.0102 13.351 18.0102 12.5718 18.0102ZM39.6375 21.8675C40.4297 21.8675 41.2349 21.8805 42.0271 21.8675C43.235 21.8415 44.0662 21.0103 44.0402 19.8934C44.0142 18.8155 43.17 18.0232 41.9882 18.0232C40.4427 18.0102 38.8972 18.0102 37.3517 18.0232C36.1309 18.0232 35.2867 18.8155 35.2737 19.9194C35.2607 21.0493 36.1049 21.8545 37.3517 21.8675C38.105 21.8805 38.8712 21.8675 39.6375 21.8675Z" fill="#3C43ED"></path></svg>