<svg xmlns="http://www.w3.org/2000/svg" width="1em" height="1em" viewBox="0 0 24 24" fill="#3C43ED"><path d="M23.928 11.832c-0.048-0.12-0.12-0.216-0.168-0.264l-7.776-8.16c-0.12-0.144-0.288-0.216-0.48-0.24-0.168 0-0.36 0.048-0.48 0.168-0.288 0.24-0.312 0.672-0.048 0.984l6.648 6.984h-20.904c-0.384 0-0.696 0.312-0.696 0.696s0.312 0.672 0.696 0.672h20.904l-6.624 7.008c-0.12 0.144-0.192 0.312-0.168 0.48 0 0.192 0.096 0.36 0.216 0.48 0.12 0.144 0.312 0.216 0.48 0.216 0.144 0 0.312-0.048 0.48-0.192l7.776-8.16c0 0 0.168-0.264 0.168-0.336 0.024-0.12 0.024-0.216-0.024-0.336z"></path></svg>