<svg version="1.1" xmlns="http://www.w3.org/2000/svg" width="1em" height="1em" viewBox="0 0 24 24">
<path d="M22.56 1.68h-2.568v-1.032c0-0.264-0.24-0.576-0.576-0.576h-2.76c-0.264 0-0.576 0.24-0.576 0.576v1.032h-8.28v-1.032c0-0.264-0.24-0.576-0.576-0.576h-2.712c-0.264 0-0.576 0.24-0.576 0.576v1.032h-2.496c-0.264 0-0.552 0.24-0.552 0.576v21.096c0 0.264 0.24 0.576 0.576 0.576h21.096c0.264 0 0.576-0.24 0.576-0.576v-21.12c-0.024-0.312-0.264-0.552-0.576-0.552zM22.032 7.080v15.72h-20.016v-15.72h20.016zM5.136 3.24v-2.040h1.632v2.064h-1.632zM17.232 3.24v-2.040h1.632v2.064h-1.632zM4.608 4.392h2.76c0.264 0 0.576-0.24 0.576-0.576v-1.032h8.256v1.032c0 0.264 0.24 0.576 0.576 0.576h2.736c0.264 0 0.576-0.24 0.576-0.576v-1.032h1.992v3.216h-20.064v-3.216h2.040v1.032c-0.024 0.264 0.216 0.576 0.552 0.576zM19.584 9.096h-15.168v11.664h15.192v-11.664zM18.48 17.232v2.424h-2.424v-2.424h2.424zM18.48 13.704v2.448h-2.424v-2.448h2.424zM18.48 10.176v2.448h-2.424v-2.448h2.424zM14.976 17.232v2.424h-2.4v-2.424h2.4zM14.976 13.704v2.448h-2.4v-2.448h2.4zM14.976 10.176v2.448h-2.4v-2.448h2.4zM9.024 12.624v-2.448h2.424v2.448h-2.424zM9.024 16.152v-2.448h2.424v2.448h-2.424zM11.448 17.232v2.424h-2.424v-2.424h2.424zM7.92 17.232v2.424h-2.424v-2.424h2.424zM7.944 13.704v2.448h-2.424v-2.448h2.424zM7.944 10.176v2.448h-2.424v-2.448h2.424z"></path>
</svg>