<svg version="1.1" xmlns="http://www.w3.org/2000/svg" fill="currentColor" width="1em" height="1em" viewBox="0 0 24 24">
    <path d="M0 7.488h5.376v16.512h-5.376v-16.512zM19.992 7.704c-0.048-0.024-0.12-0.048-0.168-0.048-0.072-0.024-0.144-0.024-0.216-0.048-0.288-0.048-0.6-0.096-0.96-0.096-3.12 0-5.112 2.28-5.76 3.144v-3.168h-5.4v16.512h5.376v-9c0 0 4.056-5.64 5.76-1.488 0 3.696 0 10.512 0 10.512h5.376v-11.16c0-2.496-1.704-4.56-4.008-5.16zM5.232 2.616c0 1.445-1.171 2.616-2.616 2.616s-2.616-1.171-2.616-2.616c0-1.445 1.171-2.616 2.616-2.616s2.616 1.171 2.616 2.616z"></path>
</svg>