<svg width="1em" height="1em" viewBox="0 0 12 12" xmlns="http://www.w3.org/2000/svg">
<path d="M9.11773 7.80952C8.5453 7.80952 8.03418 8.03417 7.62558 8.42267C7.54366 8.50459 7.46224 8.60661 7.40093 8.68853L4.10956 6.68526C4.19148 6.46061 4.23219 6.23546 4.23219 5.9902C4.23219 5.74494 4.19148 5.51979 4.10956 5.29514L7.40093 3.31197C7.78942 3.8638 8.42317 4.21158 9.11823 4.21158C10.2837 4.21158 11.224 3.27127 11.224 2.10579C11.224 0.940319 10.2837 0 9.11823 0C7.95276 0 7.01244 0.940319 7.01244 2.10579C7.01244 2.33044 7.05315 2.5556 7.11446 2.78025L3.80249 4.76341C3.414 4.21158 2.78025 3.88441 2.10579 3.88441C0.940319 3.88441 0 4.82473 0 5.9902C0 7.15567 0.940319 8.09599 2.10579 8.09599C2.78025 8.09599 3.414 7.76881 3.80249 7.21699L7.11446 9.22025C7.03254 9.4449 7.01244 9.67006 7.01244 9.89471C7.01244 10.4671 7.23709 10.9783 7.62558 11.3869C8.01407 11.7753 8.5458 12 9.11773 12C9.68966 12 10.2013 11.7753 10.6099 11.3869C10.9984 10.9984 11.223 10.4666 11.223 9.89471C11.223 9.32278 10.9984 8.81116 10.6099 8.40256C10.2214 8.03468 9.68966 7.80952 9.11773 7.80952V7.80952ZM10.6305 9.91481C10.6305 10.3239 10.4671 10.6918 10.2013 10.9778C9.91532 11.2637 9.54693 11.407 9.13834 11.407C8.72974 11.407 8.36135 11.2436 8.07539 10.9778C7.78942 10.6918 7.64619 10.3234 7.64619 9.91481C7.64619 9.50622 7.80953 9.13783 8.07539 8.85186C8.36135 8.5659 8.72974 8.42267 9.13834 8.42267C9.54693 8.42267 9.91532 8.586 10.2013 8.85186C10.4671 9.13783 10.6305 9.50622 10.6305 9.91481ZM7.62508 2.10579C7.62508 1.2881 8.29954 0.613645 9.11723 0.613645C9.93492 0.613645 10.63 1.2881 10.63 2.10579C10.63 2.92348 9.95552 3.59794 9.13783 3.59794C8.32014 3.59794 7.62508 2.92348 7.62508 2.10579V2.10579ZM2.1259 7.50245C1.3082 7.50245 0.633748 6.82799 0.633748 6.0103C0.633748 5.19261 1.3082 4.51816 2.1259 4.51816C2.94359 4.51816 3.61804 5.19261 3.61804 6.0103C3.61804 6.82799 2.94359 7.50245 2.1259 7.50245V7.50245Z"></path>
</svg>