<svg version="1.1" xmlns="http://www.w3.org/2000/svg" fill="currentColor" width="1em" height="1em" viewBox="0 0 24 24">
    <path d="M24 4.56c-0.888 0.384-1.848 0.648-2.832 0.768 1.032-0.6 1.8-1.56 2.16-2.712-0.96 0.576-1.992 0.96-3.12 1.2-0.912-0.96-2.184-1.56-3.6-1.56-2.712 0-4.92 2.208-4.92 4.92 0 0.384 0.024 0.768 0.12 1.128-4.080-0.192-7.704-2.16-10.152-5.136-0.432 0.744-0.672 1.584-0.672 2.496 0 1.704 0.888 3.216 2.184 4.080-0.768-0.024-1.56-0.264-2.208-0.624 0 0.024 0 0.024 0 0.048 0 2.4 1.704 4.368 3.936 4.824-0.384 0.12-0.84 0.168-1.296 0.168-0.312 0-0.624-0.024-0.936-0.072 0.648 1.944 2.448 3.384 4.608 3.432-1.68 1.32-3.792 2.088-6.096 2.088-0.408 0-0.792-0.024-1.176-0.072 2.184 1.416 4.752 2.208 7.56 2.208 9.048 0 14.016-7.512 14.016-13.992 0-0.216 0-0.432-0.024-0.624 0.96-0.72 1.776-1.584 2.448-2.568z"></path>
</svg>